<svg data-v-0dd9719b="" version="1.0" xmlns="http://www.w3.org/2000/svg" xmlns:xlink="http://www.w3.org/1999/xlink" width="100%" height="100%" viewBox="0 0 340.000000 250.000000" preserveAspectRatio="xMidYMid meet" color-interpolation-filters="sRGB" style="margin: auto;"> <rect data-v-0dd9719b="" x="0" y="0" width="100%" height="100%" fill="#fff" fill-opacity="1" class="background"></rect> <rect data-v-0dd9719b="" x="0" y="0" width="100%" height="100%" fill="url(#watermark)" fill-opacity="1" class="watermarklayer"></rect> <g data-v-0dd9719b="" fill="#f96464" class="icon-text-wrapper icon-svg-group iconsvg" transform="translate(46.99500274658203,96.08461570739746)"><g class="iconsvg-imagesvg" transform="translate(0,0)"><g><rect fill="#f96464" fill-opacity="0" stroke-width="2" x="0" y="0" width="60" height="57.830767896213054" class="image-rect"></rect> <svg x="0" y="0" width="60" height="57.830767896213054" filtersec="colorsb417671301" class="image-svg-svg primary" style="overflow: visible;"><svg xmlns="http://www.w3.org/2000/svg" viewBox="0 0 160.44000244140625 154.6400146484375"><g><g><path fill="#b7c406" d="M19.32 61.97v87.1h5.28V78.73l55.62 75.91 55.62-75.91v70.34h5.27v-87.1L80.22 144.9l-60.9-82.93z"></path><path fill="#f96464" d="M80.22 111.55L0 0v149.07h5.27V17.01l74.95 104.37 74.94-104.37v132.06h5.28V0L80.22 111.55z"></path><path fill="#00aad8" d="M8.79 29.19v119.88h7.02V50.12l64.41 88.29 64.41-88.29v98.95h7.02V29.19l-71.43 98.75L8.79 29.19z"></path></g></g></svg></svg> <!----></g></g> <g transform="translate(67,17.005383491516113)"><g data-gra="path-name" fill-rule="" class="tp-name iconsvg-namesvg"><g transform="scale(1)"><g><path d="M32.03-23.38L27.02 0 18.85 0 22.24-15.91 13.51 0 8.5 0 6.85-16.46 3.31 0 0 0 4.97-23.38 14.36-23.38 15.5-10.2 22.57-23.38 32.03-23.38ZM42.45-16.24L42.45-16.24Q46.83-16.24 48.82-14.69L48.82-14.69Q50.92-13.07 50.92-9.31L50.92-9.31Q50.92-7 50.15-5.14 49.37-3.28 47.97-2.06L47.97-2.06Q45.17 0.29 39.87 0.29L39.87 0.29Q35.34 0.29 33.39-1.44L33.39-1.44Q31.29-3.24 31.29-6.85L31.29-6.85Q31.29-9.24 32.27-11.19 33.25-13.14 35.09-14.43L35.09-14.43Q37.77-16.24 42.45-16.24ZM39.95-2.21L39.95-2.21Q40.87-2.21 41.55-3.24 42.23-4.27 42.63-5.76 43.04-7.25 43.24-8.85 43.44-10.46 43.44-11.63L43.44-11.63Q43.44-12.67 43.24-13.2 43.04-13.73 42.38-13.73L42.38-13.73Q41.38-13.73 40.66-12.67 39.95-11.6 39.51-10.12 39.06-8.65 38.86-7.11 38.66-5.56 38.66-4.6L38.66-4.6Q38.66-2.21 39.95-2.21ZM63.29-4.38L65.76-15.83 73.27-15.83 69.88 0 63.91 0 63.25-2.36 63.03-2.36Q62.07-1.21 60.44-0.46 58.8 0.29 57.14 0.29L57.14 0.29Q54.93 0.29 53.68-0.83 52.43-1.95 52.43-3.76L52.43-3.76Q52.43-4.68 52.74-6.06 53.05-7.44 53.31-8.65L53.31-8.65 54.86-15.83 62.33-15.83 60.49-7.22Q60.42-6.92 60.34-6.52 60.27-6.11 60.2-5.73 60.12-5.34 60.07-4.99 60.01-4.64 60.01-4.42L60.01-4.42Q60.01-3.87 60.25-3.48 60.49-3.09 61.12-3.09L61.12-3.09Q61.78-3.09 62.37-3.53 62.96-3.98 63.29-4.38L63.29-4.38ZM83.21-13.48L83.43-13.48Q84.2-14.21 85.16-14.84L85.16-14.84Q86.01-15.35 87.15-15.79 88.29-16.24 89.69-16.24L89.69-16.24Q91.6-16.24 92.85-15.26 94.11-14.29 94.11-12.59L94.11-12.59Q94.11-12.11 93.99-11.43 93.88-10.75 93.74-10.01 93.59-9.28 93.42-8.52 93.26-7.77 93.15-7.18L93.15-7.18 91.6 0 84.13 0 86.15-9.61Q86.23-10.09 86.34-10.58 86.45-11.08 86.45-11.49L86.45-11.49Q86.45-12.04 86.17-12.39 85.89-12.74 85.34-12.74L85.34-12.74Q84.68-12.74 84.07-12.26 83.46-11.78 83.13-11.45L83.13-11.45 80.7 0 73.19 0 76.54-15.83 82.54-15.83 83.21-13.48ZM96.13-13.36L96.65-15.83Q98.01-16.13 99.04-16.49 100.07-16.86 100.93-17.41 101.8-17.97 102.59-18.78 103.38-19.59 104.3-20.76L104.3-20.76 108.1-20.76 107.03-15.83 109.9-15.83 109.42-13.36 106.51-13.36 105-6.19Q104.82-5.34 104.71-4.68 104.6-4.01 104.6-3.64L104.6-3.64Q104.6-2.91 105.13-2.72 105.67-2.54 107.14-2.54L107.14-2.54 106.59 0Q106.33 0.07 105.79 0.11 105.26 0.15 104.62 0.2 103.97 0.26 103.29 0.28 102.61 0.29 102.09 0.29L102.09 0.29Q101.17 0.29 100.29 0.17 99.41 0.04 98.71-0.35 98.01-0.74 97.58-1.47 97.16-2.21 97.16-3.46L97.16-3.46Q97.16-3.9 97.22-4.57 97.27-5.23 97.46-6.04L97.46-6.04 99-13.36 96.13-13.36ZM111.34-11.19L112.04-14.47Q113.91-15.39 115.88-15.81 117.85-16.24 120.28-16.24L120.28-16.24Q122.64-16.24 124.18-15.87 125.73-15.5 126.65-14.8 127.57-14.1 127.94-13.14 128.31-12.19 128.31-10.97L128.31-10.97Q128.31-10.27 128.22-9.46 128.12-8.65 128.01-8.1L128.01-8.1 126.28 0 120.36 0 119.69-2.36 119.47-2.36Q118.29-1.07 116.73-0.39 115.16 0.29 113.62 0.29L113.62 0.29Q112.73 0.29 111.89 0.04 111.04-0.22 110.38-0.75 109.72-1.29 109.31-2.12 108.91-2.95 108.91-4.12L108.91-4.12Q108.91-6.04 109.96-7.16 111-8.28 112.72-8.85 114.43-9.43 116.58-9.57 118.74-9.72 120.91-9.72L120.91-9.72Q120.98-10.09 121.09-10.77 121.2-11.45 121.2-11.97L121.2-11.97Q121.2-12.63 120.85-13.2 120.5-13.77 119.4-13.77L119.4-13.77Q118.11-13.77 117.5-13.01 116.9-12.26 116.71-11.19L116.71-11.19 111.34-11.19ZM119.91-5.15L120.5-7.99 119.84-7.99Q118.77-7.99 118.02-7.71 117.26-7.44 116.8-7 116.34-6.55 116.12-6 115.9-5.45 115.9-4.9L115.9-4.9Q115.9-4.01 116.36-3.57 116.82-3.13 117.45-3.13L117.45-3.13Q118.22-3.13 118.98-3.68 119.73-4.23 119.91-5.15L119.91-5.15ZM140.24-15.83L136.81 0 129.34 0 132.69-15.83 140.24-15.83ZM141.19-20.65L141.19-20.65Q141.19-19.81 140.84-19.18 140.49-18.56 139.92-18.11 139.35-17.67 138.62-17.45 137.88-17.23 137.11-17.23L137.11-17.23Q135.64-17.23 134.64-17.93 133.65-18.63 133.65-20.14L133.65-20.14Q133.65-20.95 133.98-21.59 134.31-22.24 134.88-22.66 135.45-23.08 136.21-23.31 136.96-23.53 137.77-23.53L137.77-23.53Q139.21-23.53 140.2-22.83 141.19-22.13 141.19-20.65ZM150.14-13.48L150.36-13.48Q151.14-14.21 152.09-14.84L152.09-14.84Q152.94-15.35 154.08-15.79 155.22-16.24 156.62-16.24L156.62-16.24Q158.54-16.24 159.79-15.26 161.04-14.29 161.04-12.59L161.04-12.59Q161.04-12.11 160.93-11.43 160.82-10.75 160.67-10.01 160.52-9.28 160.36-8.52 160.19-7.77 160.08-7.18L160.08-7.18 158.54 0 151.06 0 153.09-9.61Q153.16-10.09 153.27-10.58 153.38-11.08 153.38-11.49L153.38-11.49Q153.38-12.04 153.1-12.39 152.83-12.74 152.28-12.74L152.28-12.74Q151.61-12.74 151.01-12.26 150.4-11.78 150.07-11.45L150.07-11.45 147.64 0 140.13 0 143.48-15.83 149.48-15.83 150.14-13.48ZM178.16-11.19L173.37-11.19Q173.41-11.38 173.45-11.56 173.48-11.74 173.48-11.97L173.48-11.97Q173.48-12.63 173.24-13.2 173-13.77 172.31-13.77L172.31-13.77Q171.68-13.77 171.05-13.24 170.43-12.7 170.43-11.82L170.43-11.82Q170.43-11.23 170.74-10.88 171.05-10.53 171.57-10.31 172.08-10.09 172.73-9.94 173.37-9.79 174-9.65L174-9.65Q174.88-9.43 175.67-9.11 176.47-8.8 177.09-8.28 177.72-7.77 178.09-7.01 178.45-6.26 178.45-5.15L178.45-5.15Q178.45-3.61 177.74-2.56 177.02-1.51 175.75-0.87 174.48-0.22 172.77 0.04 171.05 0.29 169.1 0.29L169.1 0.29Q166.12 0.29 164.17-0.15 162.22-0.59 161.44-0.99L161.44-0.99 162.22-4.68 167.19-4.68Q167.15-4.49 167.15-4.33 167.15-4.16 167.15-3.98L167.15-3.98Q167.15-3.13 167.54-2.63 167.92-2.14 168.88-2.14L168.88-2.14Q169.95-2.14 170.41-2.74 170.87-3.35 170.87-3.87L170.87-3.87Q170.87-4.38 170.48-4.77 170.1-5.15 169.51-5.43 168.92-5.71 168.2-5.91 167.48-6.11 166.82-6.3L166.82-6.3Q166.34-6.41 165.73-6.66 165.13-6.92 164.57-7.4 164.02-7.88 163.65-8.63 163.28-9.39 163.28-10.53L163.28-10.53Q163.28-12.15 164.08-13.24 164.87-14.32 166.14-14.98 167.41-15.65 169.01-15.94 170.61-16.24 172.23-16.24L172.23-16.24Q174.26-16.24 176.06-15.87 177.86-15.5 179.01-14.91L179.01-14.91 178.16-11.19Z" transform="translate(0, 23.530000686645508)"></path></g> <!----> <!----> <!----> <!----> <!----> <!----> <!----></g></g> <!----></g></g><defs v-gra="od"></defs></svg>